<svg xmlns="http://www.w3.org/2000/svg" xml:space="preserve" style="enable-background:new 0 0 5669.3 2267.7" viewBox="0 0 5669.3 2267.7"><style>.st0{display:none}.st1{display:inline}.st2{fill:#286d49}.st3{display:inline;fill:#5b657f}.st4,.st6{fill:#fff}.st6{display:inline}.st7{font-family:&quot;ISOCTEUR&quot;}.st9{fill:none}.st11{fill:#5b657f}.st12{display:inline;fill:#286d49}.st14{fill:#050504}.st17{fill:#050605}</style><g id="logo2025"><g id="AndresValencia"><g id="_x3C_AndresValencia_x3E_"><path d="m2098.9 1186.6-40.2 66.3h29.9l-4 18.8h-72.9l3.8-18.8h17.6l163.4-269.5h24.7l49.1 269.5h17.4l-3.8 18.8H2193l3.8-18.8h29.9l-12.2-66.3h-115.6zm11.3-18.8h100.9l-23.5-127.7-77.4 127.7zM2334.9 1271.6l39.7-189h-32.8l4.2-19h72.5l-4 19-13.9 66.3c17.5-27.8 36.5-49.7 56.9-65.9 20.4-16.1 39.4-24.2 56.9-24.2 10.4 0 18.8 3.4 25.3 10.1 6.5 6.7 9.8 15.4 9.8 26.1 0 5.8-1.3 14.8-3.8 27.1l-27.6 130.5h33l-4 19h-72.8l31.5-150c.8-4.1 1.2-8 1.2-11.6 0-5.7-1.3-9.9-3.8-12.7s-6.4-4.2-11.5-4.2c-25.4 0-58.8 33.3-100.3 100l-16.5 78.5h-40zM2733.2 1271.6l3.8-19 14.5-68.6c-16.8 28-35.4 50.4-55.9 67.2-20.5 16.8-39.6 25.2-57.3 25.2-13.2 0-23.6-4.3-31.4-12.9-7.8-8.6-11.7-20.3-11.7-35 0-41.7 15.4-80.3 46.1-116.1 30.7-35.7 64-53.6 99.7-53.6 7.5 0 19.4 1.6 35.7 4.8l15.8-75.5h-29.8l4-19h69.6l-59.5 283.4h29.8l-4 19h-69.4zm27.4-130.2 10.8-51.7c-12.9-4.9-27.8-7.3-44.7-7.3-21.2 0-37.9 7.7-50.1 23.2-9.5 12.1-18.4 30.3-26.7 54.5s-12.4 44.2-12.4 60c0 8.4 1.6 14.8 4.8 19.1 3.2 4.3 8 6.4 14.3 6.4 11.7 0 27.3-9.8 46.9-29.4 19.6-19.5 38.6-44.5 57.1-74.8zM2866.3 1271.6l39.7-189h-32.8l4.2-19h72.5l-4.1 19-13.8 66.3c38.7-60 75.9-90 111.6-90 3.5 0 6.8.6 9.9 1.7l-17.1 44.2c-5.8-3.2-12.1-4.8-18.9-4.8-22.8 0-54.4 31.2-94.8 93.7l-16.3 77.9h-40.1zM3236.1 1238.5c-40.2 25.3-75.6 37.9-106.2 37.9-20.7 0-37.1-6.6-49.2-19.7-12.1-13.1-18.1-30.8-18.1-53 0-42.3 15.9-77.9 47.8-107.1 27.4-25.2 56.1-37.7 86.1-37.7 13 0 23.8 3.8 32.4 11.3 8.5 7.5 12.8 17 12.8 28.5 0 25.7-12.5 46.8-37.4 63.3s-58.3 25.8-100.1 27.7l-.2 7.9c0 15.7 4.5 28.4 13.5 38.2 9 9.8 20.6 14.7 34.9 14.7 24.7 0 54.5-12.6 89.3-37.7l-5.6 25.7zm-130.6-64.5c30.1-2.3 53.9-9.5 71.4-21.5 17.5-12 26.2-27.1 26.2-45.3 0-8.3-2.1-14.5-6.2-18.6-4.2-4.1-10.4-6.1-18.7-6.1-16.8 0-31.9 8.5-45.5 25.5-13.6 17-22.6 39-27.2 66zM3271.8 1259.8l8.1-38.9h25l-4.4 21.4c15.3 10.3 30.4 15.4 45.2 15.4 12 0 21.9-3 29.9-9s12-13.5 12-22.4c0-8.8-5.6-18.9-16.9-30.1l-21.2-21.1c-24.5-24.4-36.7-44.4-36.7-59.9 0-16.6 7.1-30.2 21.2-40.6 14.1-10.4 32.3-15.6 54.4-15.6 18.5 0 39.6 4.7 63.1 14.2l-8.3 38.9h-24.8l4.4-21.3c-12.4-8.7-25.1-13-38.3-13-9.8 0-18.1 2.8-24.9 8.5-6.8 5.7-10.2 12.6-10.2 20.6 0 9.5 6.6 20.5 19.8 33l21 19.7c23.1 21.7 34.7 41.5 34.7 59.2 0 17.4-7.3 31.3-21.8 41.9-14.5 10.5-33.8 15.8-57.9 15.8-23.8-.1-48.3-5.6-73.4-16.7zM3694.8 1276.4l-52.2-269.5h-17.4l4-18.8h90.5l-4 18.8h-29.8l41.6 214.8 128.6-214.8h-29.9l3.8-18.8h73.1l-3.8 18.8-17.5.2-161.5 269.3h-25.5zM4024.1 1271.6l3.9-19 14.4-68.4c-16.5 27.8-35.1 50.1-55.6 66.9-20.6 16.8-39.7 25.2-57.4 25.2-13.2 0-23.6-4.3-31.4-12.9-7.8-8.6-11.7-20.3-11.7-35 0-41.7 15.4-80.3 46.1-116.1 30.7-35.7 63.9-53.6 99.7-53.6 3.8 0 8.6.4 14.6 1.2 6 .8 13 2 21.1 3.6h39.9l-39.7 189h33l-4.2 19h-72.7zm27.3-130 10.9-51.9c-6.3-2.5-13.2-4.3-20.6-5.5-7.4-1.2-15.4-1.8-24-1.8-21.2 0-38 7.7-50.2 23.2-9.5 12.1-18.5 30.3-26.7 54.5-8.3 24.2-12.4 44.2-12.4 60 0 8.4 1.6 14.8 4.8 19.1 3.2 4.3 8 6.4 14.3 6.4 11.7 0 27.3-9.8 46.9-29.3 19.5-19.5 38.5-44.4 57-74.7zM4157.1 1271.6l59.5-283.4h-29.8l4-19h69.6l-59.5 283.4h29.8l-4 19h-69.6zM4454.4 1238.5c-40.2 25.3-75.6 37.9-106.2 37.9-20.7 0-37.1-6.6-49.2-19.7-12.1-13.1-18.1-30.8-18.1-53 0-42.3 15.9-77.9 47.8-107.1 27.4-25.2 56.1-37.7 86.1-37.7 13 0 23.8 3.8 32.4 11.3 8.5 7.5 12.8 17 12.8 28.5 0 25.7-12.5 46.8-37.4 63.3s-58.3 25.8-100.1 27.7l-.2 7.9c0 15.7 4.5 28.4 13.5 38.2 9 9.8 20.6 14.7 34.9 14.7 24.7 0 54.5-12.6 89.3-37.7l-5.6 25.7zm-130.6-64.5c30.1-2.3 53.9-9.5 71.4-21.5 17.5-12 26.2-27.1 26.2-45.3 0-8.3-2.1-14.5-6.2-18.6-4.2-4.1-10.4-6.1-18.7-6.1-16.8 0-31.9 8.5-45.5 25.5-13.6 17-22.6 39-27.2 66zM4512.1 1271.6l39.7-189H4519l4.2-19h72.5l-4 19-13.9 66.3c17.5-27.8 36.5-49.7 56.9-65.9 20.4-16.1 39.4-24.2 56.9-24.2 10.4 0 18.8 3.4 25.3 10.1 6.5 6.7 9.8 15.4 9.8 26.1 0 5.8-1.3 14.8-3.8 27.1l-27.6 130.5h33l-4 19h-72.8l31.5-150c.8-4.1 1.2-8 1.2-11.6 0-5.7-1.3-9.9-3.8-12.7-2.6-2.8-6.4-4.2-11.5-4.2-25.4 0-58.8 33.3-100.3 100l-16.5 78.5h-40zM4927.7 1253.4c-29.3 15.3-57.9 23-86 23-20.9 0-37.3-6.4-49.1-19.3-11.8-12.8-17.7-30.6-17.7-53.4 0-38 13.9-71.6 41.8-100.9 27.9-29.3 59.9-44 96-44 18.1 0 35.3 3.1 51.4 9.4l-9.3 43.7h-22.4l2.2-21.8c-11.7-6.6-24.2-10-37.5-10-20.6 0-38.9 11.8-54.9 35.4-16.1 23.6-24.1 50.5-24.1 80.8 0 16.5 4.1 29.6 12.4 39.4 8.2 9.8 19.3 14.7 33.1 14.7 22.1 0 45.2-7.3 69.2-22l-5.1 25zM4993.4 1271.6l39.5-189h-32.7l4.2-19h72.3l-39.5 189h33l-4.2 19h-72.6zm51.4-245.7 7.9-37.7h39.9l-7.9 37.7h-39.9zM5252.4 1271.6l3.9-19 14.4-68.4c-16.5 27.8-35.1 50.1-55.6 66.9-20.6 16.8-39.7 25.2-57.4 25.2-13.2 0-23.6-4.3-31.4-12.9-7.8-8.6-11.7-20.3-11.7-35 0-41.7 15.4-80.3 46.1-116.1 30.7-35.7 63.9-53.6 99.7-53.6 3.8 0 8.6.4 14.6 1.2 6 .8 13 2 21.1 3.6h39.9l-39.7 189h33l-4.2 19h-72.7zm27.3-130 10.9-51.9c-6.3-2.5-13.2-4.3-20.6-5.5-7.4-1.2-15.4-1.8-24-1.8-21.2 0-38 7.7-50.2 23.2-9.5 12.1-18.5 30.3-26.7 54.5-8.3 24.2-12.4 44.2-12.4 60 0 8.4 1.6 14.8 4.8 19.1 3.2 4.3 8 6.4 14.3 6.4 11.7 0 27.3-9.8 46.9-29.3 19.6-19.5 38.6-44.4 57-74.7z" class="st14"/></g><path d="M1968.1 1312.3H5354v131.8H1968.1z" class="st11"/><path d="M1974.7 1336.4H5354v82.2H1974.7z" class="st9"/><text class="st4 st7" style="font-size:118.8868px" transform="matrix(1.6009 0 0 1 2584.87 1413.075)">SALON DE BELLEZA</text><g id="logo"><path d="M1201.3 1405.2c-254.1 0-460-145.1-460-324s206-324 460-324c254.1 0 460 145.1 460 324 5.3 165.9-204.8 321.2-460 324m-.9-657.3c-130.4 0-248.5 37.2-334 97.4S728 988.7 728 1080.5c0 91.9 52.9 175 138.3 235.2 85.5 60.2 203.6 97.4 334 97.4s248.5-37.2 334-97.4 138.3-143.4 138.3-235.2h.9-.9c0-91.9-52.9-175-138.3-235.2-85.4-60.2-203.5-97.4-333.9-97.4" class="st11"/><path d="M1164 1468c-254.1 0-460-145.1-460-324s206-324 460-324c254.1 0 460 145.1 460 324 5.3 165.9-204.8 321.2-460 324m-.9-657.3c-130.4 0-248.5 37.2-334 97.4s-138.3 143.4-138.3 235.2c0 91.9 52.9 175 138.3 235.2 85.5 60.2 203.6 97.4 334 97.4s248.5-37.2 334-97.4 138.3-143.4 138.3-235.2h.9-.9c0-91.9-52.9-175-138.3-235.2-85.5-60.2-203.6-97.4-334-97.4" class="st11"/><path id="V_00000137840406519058599070000016556397296646096269_" d="M1183.9 747.9c-45.3 234 105.1 390.5 380.9 479.8-92-148.2-148.5-295.2 24-434.8l29.3 18.7c-5.1-18.7 12.5-47 42.6-80.6-43.7 23.7-80 34.9-109.2 33.7l24 15c-114.7 77.1-174.3 178-167.8 307.4-92.5-48.5-205.7-154.4-223.8-339.2z" class="st11"/><path d="M765.7 993.4c132.7 161.9 92.9 361.2-95.9 515.4 119.9-56.2 282.4-225.8 253.1-374.8 111.9 45 199.8 151.8 229.1 333.6 42.5-88.1-8.2-390-386.3-474.2z" class="st11"/><path d="M1146.6 1242.7c57.7 63.9 82.6 139.1 70.6 225.3 37.7-105.4 14.2-180.5-70.6-225.3zM1142.2 1486.3h19.3v116.2h-19.3z" class="st11"/><path d="M1114.6 1536.9h74.6v15h-74.6zM720.4 997.2c-61.3-5.6-114.5 15-109.2 63.7 2.7 33.7 5 75.9-63.9 95.6 9.5 4.9 38.6 17.8 38.6 19.7 5.3 3.7-19.6 21.8-20 19.7l40 13.1-41.3 14.1c13 5.9 16 15 13.3 31.9-3.3 12.7 8 24.4 26.6 24.4h32c63.9 1.9 74.6 69.3 71.9 95.6-9.5-34.2-24.9-72.2-71.9-80.6h-40c-29.3 1.9-58.6-17.1-34.6-43.1v-9.4c.2-9.8-13.1-23.9-27-25.6 6.1-5.5 19.6-5.1 29.7-8.2l-33.5-7.2c16.5-8.4 21.1-10.6 28.2-20.9-1.4-4.9-22.6-12.2-51.9-32.8 79.9 1.9 85.2-61.8 82.6-82.5-13.5-80.6 114.8-88.2 130.4-67.5zM1664.7 1217.4c61.3 5.6 114.5-15 109.2-63.7-2.7-33.7-5-75.9 63.9-95.6-9.5-4.9-38.6-17.8-38.6-19.7-5.3-3.7 19.6-21.8 20-19.7l-40-13.1 41.3-14.1c-13-5.9-16-15-13.3-31.9 3.3-12.7-8-24.4-26.6-24.4h-32c-63.9-1.9-74.6-69.3-71.9-95.6 9.5 34.2 24.9 72.2 71.9 80.6h40c29.3-1.9 58.6 17.1 34.6 43.1v9.4c-.2 9.8 19.4 21.7 33.3 23.4-6.1 5.5-25.9 7.2-36 10.3l38.6 6.6c-16.5 8.4-26.2 11.3-33.3 21.6 1.4 4.9 22.6 12.2 51.9 32.8-79.9-1.9-85.2 61.8-82.6 82.5 13.4 80.6-114.9 88.2-130.4 67.5zM1183.9 984.1c-84.9-65.9-114.1-159.3-42.6-266.1-39.3 98.9-14.7 185.7 42.6 266.1z" class="st11"/></g></g></g></svg>