<svg xmlns="http://www.w3.org/2000/svg" xml:space="preserve" style="enable-background:new 0 0 5669.3 2267.7" viewBox="0 0 5669.3 2267.7"><style>.st0{display:none}.st1{display:inline}.st2{fill:#286d49}.st3{display:inline;fill:#5b657f}.st4,.st6{fill:#fff}.st6{display:inline}.st7{font-family:&quot;ISOCTEUR&quot;}.st9{fill:none}.st11{fill:#5b657f}.st12{display:inline;fill:#286d49}.st14{fill:#050504}.st17{fill:#050605}</style><g id="logo2025"><path d="m2098.9 1186.6-40.2 66.3h29.9l-4 18.8h-72.9l3.8-18.8h17.6l163.4-269.5h24.7l49.1 269.5h17.4l-3.8 18.8H2193l3.8-18.8h29.9l-12.2-66.3h-115.6zm11.3-18.8h100.9l-23.5-127.7-77.4 127.7zM2334.9 1271.6l39.7-189h-32.8l4.2-19h72.5l-4 19-13.9 66.3c17.5-27.8 36.5-49.7 56.9-65.9 20.4-16.1 39.4-24.2 56.9-24.2 10.4 0 18.8 3.4 25.3 10.1 6.5 6.7 9.8 15.4 9.8 26.1 0 5.8-1.3 14.8-3.8 27.1l-27.6 130.5h33l-4 19h-72.8l31.5-150c.8-4.1 1.2-8 1.2-11.6 0-5.7-1.3-9.9-3.8-12.7s-6.4-4.2-11.5-4.2c-25.4 0-58.8 33.3-100.3 100l-16.5 78.5h-40zM2733.2 1271.6l3.8-19 14.5-68.6c-16.8 28-35.4 50.4-55.9 67.2-20.5 16.8-39.6 25.2-57.3 25.2-13.2 0-23.6-4.3-31.4-12.9-7.8-8.6-11.7-20.3-11.7-35 0-41.7 15.4-80.3 46.1-116.1 30.7-35.7 64-53.6 99.7-53.6 7.5 0 19.4 1.6 35.7 4.8l15.8-75.5h-29.8l4-19h69.6l-59.5 283.4h29.8l-4 19h-69.4zm27.4-130.2 10.8-51.7c-12.9-4.9-27.8-7.3-44.7-7.3-21.2 0-37.9 7.7-50.1 23.2-9.5 12.1-18.4 30.3-26.7 54.5s-12.4 44.2-12.4 60c0 8.4 1.6 14.8 4.8 19.1 3.2 4.3 8 6.4 14.3 6.4 11.7 0 27.3-9.8 46.9-29.4 19.6-19.5 38.6-44.5 57.1-74.8zM2866.3 1271.6l39.7-189h-32.8l4.2-19h72.5l-4.1 19-13.8 66.3c38.7-60 75.9-90 111.6-90 3.5 0 6.8.6 9.9 1.7l-17.1 44.2c-5.8-3.2-12.1-4.8-18.9-4.8-22.8 0-54.4 31.2-94.8 93.7l-16.3 77.9h-40.1zM3236.1 1238.5c-40.2 25.3-75.6 37.9-106.2 37.9-20.7 0-37.1-6.6-49.2-19.7-12.1-13.1-18.1-30.8-18.1-53 0-42.3 15.9-77.9 47.8-107.1 27.4-25.2 56.1-37.7 86.1-37.7 13 0 23.8 3.8 32.4 11.3 8.5 7.5 12.8 17 12.8 28.5 0 25.7-12.5 46.8-37.4 63.3s-58.3 25.8-100.1 27.7l-.2 7.9c0 15.7 4.5 28.4 13.5 38.2 9 9.8 20.6 14.7 34.9 14.7 24.7 0 54.5-12.6 89.3-37.7l-5.6 25.7zm-130.6-64.5c30.1-2.3 53.9-9.5 71.4-21.5 17.5-12 26.2-27.1 26.2-45.3 0-8.3-2.1-14.5-6.2-18.6-4.2-4.1-10.4-6.1-18.7-6.1-16.8 0-31.9 8.5-45.5 25.5-13.6 17-22.6 39-27.2 66zM3271.8 1259.8l8.1-38.9h25l-4.4 21.4c15.3 10.3 30.4 15.4 45.2 15.4 12 0 21.9-3 29.9-9s12-13.5 12-22.4c0-8.8-5.6-18.9-16.9-30.1l-21.2-21.1c-24.5-24.4-36.7-44.4-36.7-59.9 0-16.6 7.1-30.2 21.2-40.6 14.1-10.4 32.3-15.6 54.4-15.6 18.5 0 39.6 4.7 63.1 14.2l-8.3 38.9h-24.8l4.4-21.3c-12.4-8.7-25.1-13-38.3-13-9.8 0-18.1 2.8-24.9 8.5-6.8 5.7-10.2 12.6-10.2 20.6 0 9.5 6.6 20.5 19.8 33l21 19.7c23.1 21.7 34.7 41.5 34.7 59.2 0 17.4-7.3 31.3-21.8 41.9-14.5 10.5-33.8 15.8-57.9 15.8-23.8-.1-48.3-5.6-73.4-16.7zM3694.8 1276.4l-52.2-269.5h-17.4l4-18.8h90.5l-4 18.8h-29.8l41.6 214.8 128.6-214.8h-29.9l3.8-18.8h73.1l-3.8 18.8-17.5.2-161.5 269.3h-25.5zM4024.1 1271.6l3.9-19 14.4-68.4c-16.5 27.8-35.1 50.1-55.6 66.9-20.6 16.8-39.7 25.2-57.4 25.2-13.2 0-23.6-4.3-31.4-12.9-7.8-8.6-11.7-20.3-11.7-35 0-41.7 15.4-80.3 46.1-116.1 30.7-35.7 63.9-53.6 99.7-53.6 3.8 0 8.6.4 14.6 1.2 6 .8 13 2 21.1 3.6h39.9l-39.7 189h33l-4.2 19h-72.7zm27.3-130 10.9-51.9c-6.3-2.5-13.2-4.3-20.6-5.5-7.4-1.2-15.4-1.8-24-1.8-21.2 0-38 7.7-50.2 23.2-9.5 12.1-18.5 30.3-26.7 54.5-8.3 24.2-12.4 44.2-12.4 60 0 8.4 1.6 14.8 4.8 19.1 3.2 4.3 8 6.4 14.3 6.4 11.7 0 27.3-9.8 46.9-29.3 19.5-19.5 38.5-44.4 57-74.7zM4157.1 1271.6l59.5-283.4h-29.8l4-19h69.6l-59.5 283.4h29.8l-4 19h-69.6zM4454.4 1238.5c-40.2 25.3-75.6 37.9-106.2 37.9-20.7 0-37.1-6.6-49.2-19.7-12.1-13.1-18.1-30.8-18.1-53 0-42.3 15.9-77.9 47.8-107.1 27.4-25.2 56.1-37.7 86.1-37.7 13 0 23.8 3.8 32.4 11.3 8.5 7.5 12.8 17 12.8 28.5 0 25.7-12.5 46.8-37.4 63.3s-58.3 25.8-100.1 27.7l-.2 7.9c0 15.7 4.5 28.4 13.5 38.2 9 9.8 20.6 14.7 34.9 14.7 24.7 0 54.5-12.6 89.3-37.7l-5.6 25.7zm-130.6-64.5c30.1-2.3 53.9-9.5 71.4-21.5 17.5-12 26.2-27.1 26.2-45.3 0-8.3-2.1-14.5-6.2-18.6-4.2-4.1-10.4-6.1-18.7-6.1-16.8 0-31.9 8.5-45.5 25.5-13.6 17-22.6 39-27.2 66zM4512.1 1271.6l39.7-189H4519l4.2-19h72.5l-4 19-13.9 66.3c17.5-27.8 36.5-49.7 56.9-65.9 20.4-16.1 39.4-24.2 56.9-24.2 10.4 0 18.8 3.4 25.3 10.1 6.5 6.7 9.8 15.4 9.8 26.1 0 5.8-1.3 14.8-3.8 27.1l-27.6 130.5h33l-4 19h-72.8l31.5-150c.8-4.1 1.2-8 1.2-11.6 0-5.7-1.3-9.9-3.8-12.7-2.6-2.8-6.4-4.2-11.5-4.2-25.4 0-58.8 33.3-100.3 100l-16.5 78.5h-40zM4927.7 1253.4c-29.3 15.3-57.9 23-86 23-20.9 0-37.3-6.4-49.1-19.3-11.8-12.8-17.7-30.6-17.7-53.4 0-38 13.9-71.6 41.8-100.9 27.9-29.3 59.9-44 96-44 18.1 0 35.3 3.1 51.4 9.4l-9.3 43.7h-22.4l2.2-21.8c-11.7-6.6-24.2-10-37.5-10-20.6 0-38.9 11.8-54.9 35.4-16.1 23.6-24.1 50.5-24.1 80.8 0 16.5 4.1 29.6 12.4 39.4 8.2 9.8 19.3 14.7 33.1 14.7 22.1 0 45.2-7.3 69.2-22l-5.1 25zM4993.4 1271.6l39.5-189h-32.7l4.2-19h72.3l-39.5 189h33l-4.2 19h-72.6zm51.4-245.7 7.9-37.7h39.9l-7.9 37.7h-39.9zM5252.4 1271.6l3.9-19 14.4-68.4c-16.5 27.8-35.1 50.1-55.6 66.9-20.6 16.8-39.7 25.2-57.4 25.2-13.2 0-23.6-4.3-31.4-12.9-7.8-8.6-11.7-20.3-11.7-35 0-41.7 15.4-80.3 46.1-116.1 30.7-35.7 63.9-53.6 99.7-53.6 3.8 0 8.6.4 14.6 1.2 6 .8 13 2 21.1 3.6h39.9l-39.7 189h33l-4.2 19h-72.7zm27.3-130 10.9-51.9c-6.3-2.5-13.2-4.3-20.6-5.5-7.4-1.2-15.4-1.8-24-1.8-21.2 0-38 7.7-50.2 23.2-9.5 12.1-18.5 30.3-26.7 54.5-8.3 24.2-12.4 44.2-12.4 60 0 8.4 1.6 14.8 4.8 19.1 3.2 4.3 8 6.4 14.3 6.4 11.7 0 27.3-9.8 46.9-29.3 19.6-19.5 38.6-44.4 57-74.7z" class="st14"/><path d="M1968.1 1312.3H5354v131.8H1968.1z" class="st11"/><path d="M1974.7 1336.4H5354v82.2H1974.7z" class="st9"/><text class="st4 st7" style="font-size:118.8868px" transform="matrix(1.6009 0 0 1 2584.87 1413.075)">SALON DE BELLEZA</text><path d="M4796.6 1757.9v44.1h-8.2v-44.1h-28.8v-10.6h28.8v-40.1h8.2v40.1h28.7v10.6h-28.7zM4888.1 1682l.8 1.5-3.6 12.7h-31.4c-1.2 10.6-3 25.6-4.2 35.1 5.2-2.7 12.7-5.6 16.1-5.6 16.8 0 25.7 16.8 25.7 32.7 0 11.6-3.4 22.7-11.8 32.4-7.5 8.5-17 13.5-24.2 13.5-6.4 0-11.5-3.7-14.2-7.5-1.9-2.5-2.5-4-2.2-6.5 0-1.7 1.1-4.6 2.9-6.5 1.2-1.2 2.5-1.5 3.8 0 4 5 8.8 10.6 17.2 10.6 11.5 0 17-13.9 17-28.3 0-16.9-7.2-29.1-22.4-29.1-5.6 0-10.1 1.7-13.7 3.5l-.4-.8c2.1-15 5.1-42.2 6.6-57.6h38zM4926.9 1729.4c2.9-2.1 6-3.3 8.8-3.3 14.5 0 24.5 16 24.5 35.6 0 23.1-11.8 42.6-28.2 42.6-16.1 0-28.4-18.7-28.4-48.1 0-39.7 21.5-64.7 37.9-72.6 3-1.5 9.8-3.7 15.4-5l.8 6.4c-4.4 1.3-10.8 3.9-14.9 6.5-8.3 5.4-21.3 18.1-25 44.5l9.1-6.6zm3.3 7.7c-5.5 0-10.1 2.9-13.3 5.4-.5 3.5-.8 8.3-.8 13.1 0 24.1 6.4 41.8 18 41.8 10.7 0 13.9-15.8 13.9-28.7.1-16-5.4-31.6-17.8-31.6zM5044 1746.1l-9.2 6.5c-3 2.1-5.6 2.9-8.2 2.9-14.6 0-24.6-15.8-24.6-36 0-18.9 10.4-39.9 28-39.9s27.5 22 27.5 48.1c0 35.4-15.9 61.8-34.6 72-5.6 3.1-12.7 4.6-16.3 5l-1.1-5.6c19.4-4.8 33.9-23.1 38.5-53zm-15.6-59.7c-10.7 0-14.4 14.3-14.4 27.7 0 16.9 6.7 31 18.2 31 4.9 0 9.4-2.5 12.3-5.6.4-4.2.5-8.9.5-12.5 0-17.1-3.4-40.6-16.6-40.6zM5157.7 1684.5c-13.1 39.1-25.8 78-39.1 117.9l-9.8 1.3-1-2.1c14.2-32.5 29.3-72.4 40.1-105.4h-29.3c-8.9 0-9.4 1.7-13.1 14.4h-4.2c1.4-10.8 1.9-20.4 2.6-28.7h53l.8 2.6zM5195.4 1679.7c13.1 0 22.3 12.9 22.3 28.5 0 5.8-1.2 11.4-3.8 15.6-1.2 1.9-5.3 6.2-11.3 12.3 9.4 7.3 18.7 16.6 18.7 33.3 0 22.5-14.5 34.9-27.5 34.9-15.2 0-26.4-12.3-26.4-31.8 0-9.8 3-15.2 6.3-19.1 2.2-2.7 7.5-7.7 12.3-11.9-8.9-7.3-15.2-16.6-15.2-30.2 0-16.8 9.7-31.6 24.6-31.6zm0 118c9.2 0 14.8-8.5 14.8-22.5 0-15.4-9.2-22.9-20.2-30.4-7.4 6-11.5 15-11.5 26.4 0 17.7 7.9 26.5 16.9 26.5zm-1.7-111.7c-8.2 0-12.4 9.1-12.4 19.8 0 14.1 6.7 19.3 17.4 27.2 5.3-5.8 9-12.5 9-23.9-.1-16.1-6.9-23.1-14-23.1zM5260.8 1679.7c20.5 0 28.2 32.4 28.2 62.2 0 28.1-7.7 62.4-28.2 62.4-20.9 0-28.6-31.8-28.6-62.2 0-28.1 7.8-62.4 28.6-62.4zm0 6.7c-12.7 0-15.9 28.3-15.9 55.3 0 27 3.8 55.9 15.9 55.9 12.3 0 15.6-28.7 15.6-55.7 0-27.2-3.5-55.5-15.6-55.5zM5328 1679.7c13.1 0 22.3 12.9 22.3 28.5 0 5.8-1.2 11.4-3.8 15.6-1.2 1.9-5.3 6.2-11.3 12.3 9.4 7.3 18.7 16.6 18.7 33.3 0 22.5-14.5 34.9-27.5 34.9-15.2 0-26.4-12.3-26.4-31.8 0-9.8 3-15.2 6.3-19.1 2.2-2.7 7.5-7.7 12.3-11.9-8.9-7.3-15.2-16.6-15.2-30.2 0-16.8 9.7-31.6 24.6-31.6zm0 118c9.2 0 14.8-8.5 14.8-22.5 0-15.4-9.2-22.9-20.2-30.4-7.4 6-11.5 15-11.5 26.4 0 17.7 7.9 26.5 16.9 26.5zm-1.7-111.7c-8.2 0-12.4 9.1-12.4 19.8 0 14.1 6.7 19.3 17.4 27.2 5.3-5.8 9-12.5 9-23.9-.1-16.1-6.9-23.1-14-23.1zM5426.2 1679.7c13.1 0 22.3 12.9 22.3 28.5 0 5.8-1.2 11.4-3.8 15.6-1.2 1.9-5.3 6.2-11.3 12.3 9.4 7.3 18.7 16.6 18.7 33.3 0 22.5-14.5 34.9-27.5 34.9-15.2 0-26.4-12.3-26.4-31.8 0-9.8 3-15.2 6.3-19.1 2.2-2.7 7.5-7.7 12.3-11.9-8.9-7.3-15.2-16.6-15.2-30.2 0-16.8 9.7-31.6 24.6-31.6zm0 118c9.2 0 14.8-8.5 14.8-22.5 0-15.4-9.2-22.9-20.2-30.4-7.4 6-11.5 15-11.5 26.4-.1 17.7 7.9 26.5 16.9 26.5zm-1.8-111.7c-8.2 0-12.4 9.1-12.4 19.8 0 14.1 6.7 19.3 17.4 27.2 5.3-5.8 9-12.5 9-23.9 0-16.1-6.9-23.1-14-23.1zM5519.7 1776.4c-1.8 8.7-4.1 18.5-5.5 25.6h-51.5v-4.6c7.5-10.4 15.7-21.8 22.4-32.7 8.6-14.3 16.8-29.7 16.8-46.4 0-16-6-25.2-16-25.2-9.4 0-15.3 10.4-18.9 17.9l-3.1-4 7.8-15.6c4.2-6.7 10.8-11.6 18.7-11.6 13 0 23.2 12.5 23.2 33.3 0 16.4-4.2 27.9-17.2 46.6-5.9 8.7-14.5 20.4-20.4 28.3h26.1c7.4 0 9.4-1 14.1-13.1l3.5 1.5zM5587.4 1684.5c-13.1 39.1-25.8 78-39.1 117.9l-9.8 1.3-1-2.1c14.2-32.5 29.3-72.4 40.1-105.4h-29.3c-8.9 0-9.4 1.7-13.1 14.4h-4.2c1.4-10.8 1.9-20.4 2.6-28.7h53l.8 2.6zM5640.6 1766.9v14.6c0 12.7.5 13.7 10.3 15v5.4h-32v-5.4c10.3-1.3 10.9-2.5 10.9-15.2v-14.4h-36.1v-5.8c13-26 27.1-54.1 40.7-80.9h6.2v77.4h13.4v9.2h-13.4zm-10.8-66.4c-8.6 17.7-18.2 37.4-27.6 57.2h27.6v-57.2z" class="st14"/><path d="M1201.4 1405.2c-254.1 0-460-145.1-460-324s206-324 460-324c254.1 0 460 145.1 460 324 5.2 166-204.9 321.3-460 324m-1-657.3c-130.4 0-248.5 37.2-334 97.4s-138.3 143.4-138.3 235.2c0 91.9 52.9 175 138.3 235.2 85.5 60.2 203.6 97.4 334 97.4s248.5-37.2 334-97.4 138.3-143.4 138.3-235.2h.9-.9c0-91.9-52.9-175-138.3-235.2-85.5-60.1-203.6-97.4-334-97.4" class="st11"/><path d="M1164.1 1468.1c-254.1 0-460-145.1-460-324s206-324 460-324c254.1 0 460 145.1 460 324 5.2 165.9-204.9 321.2-460 324m-1-657.3c-130.4 0-248.5 37.2-334 97.4s-138.3 143.4-138.3 235.2c0 91.9 52.9 175 138.3 235.2 85.5 60.2 203.6 97.4 334 97.4s248.5-37.2 334-97.4 138.3-143.4 138.3-235.2h.9-.9c0-91.9-52.9-175-138.3-235.2-85.5-60.2-203.5-97.4-334-97.4" class="st11"/><path id="V_00000137840406519058599070000016556397296646096269_" d="M1183.9 748c-45.3 234 105.1 390.5 380.9 479.8-92-148.2-148.5-295.2 24-434.8l29.3 18.7c-5.1-18.7 12.5-47 42.6-80.6-43.7 23.7-80 34.9-109.2 33.7l24 15c-114.7 77.1-174.3 178-167.8 307.4-92.5-48.5-205.7-154.4-223.8-339.2z" class="st11"/><path d="M765.7 993.5c132.7 161.9 92.9 361.2-95.9 515.4 119.9-56.2 282.4-225.8 253.1-374.8 111.9 45 199.8 151.8 229.1 333.6 42.6-88.1-8.2-390-386.3-474.2z" class="st11"/><path d="M1146.6 1242.8c57.7 63.9 82.6 139.1 70.6 225.3 37.7-105.4 14.2-180.5-70.6-225.3zM1142.3 1486.4h19.3v116.2h-19.3z" class="st11"/><path d="M1114.6 1537h74.6v15h-74.6zM720.4 997.2c-61.3-5.6-114.5 15-109.2 63.7 2.7 33.7 5 75.9-63.9 95.6 9.5 4.9 38.6 17.8 38.6 19.7 5.3 3.7-19.6 21.8-20 19.7l40 13.1-41.3 14.1c13 5.9 16 15 13.3 31.9-3.3 12.7 8 24.4 26.6 24.4h32c63.9 1.9 74.6 69.3 71.9 95.6-9.5-34.2-24.9-72.2-71.9-80.6h-40c-29.3 1.9-58.6-17.1-34.6-43.1v-9.4c.2-9.8-13.1-23.9-27-25.6 6.1-5.5 19.6-5.1 29.7-8.2l-33.5-7.2c16.5-8.4 21.1-10.6 28.2-20.9-1.4-4.9-22.6-12.2-51.9-32.8 79.9 1.9 85.2-61.8 82.6-82.5-13.4-80.6 114.9-88.1 130.4-67.5zM1664.7 1217.5c61.3 5.6 114.5-15 109.2-63.7-2.7-33.7-5-75.9 63.9-95.6-9.5-4.9-38.6-17.8-38.6-19.7-5.3-3.7 19.6-21.8 20-19.7l-40-13.1 41.3-14.1c-13-5.9-16-15-13.3-31.9 3.3-12.7-8-24.4-26.6-24.4h-32c-63.9-1.9-74.6-69.3-71.9-95.6 9.5 34.2 24.9 72.2 71.9 80.6h40c29.3-1.9 58.6 17.1 34.6 43.1v9.4c-.2 9.8 19.4 21.7 33.3 23.4-6.1 5.5-25.9 7.2-36 10.3l38.6 6.6c-16.5 8.4-26.2 11.3-33.3 21.6 1.4 4.9 22.6 12.2 51.9 32.8-79.9-1.9-85.2 61.8-82.6 82.5 13.4 80.6-114.8 88.1-130.4 67.5zM1183.9 984.1c-84.9-65.9-114.1-159.3-42.6-266.1-39.3 99-14.7 185.8 42.6 266.1zM59 1850.7l1-111.3-60 .7v-44.8l60 .7c-9.7-91.8 51.4-91.1 140.8-87.4v38.8c-82.8-1.5-69.5 3-70.4 47.8l68.5 1.5-10.5 43.3h-58l-1 110.5H59z" class="st11"/><path d="M3026.8 1842.3c4.8-8.6 9.9-17.1 14.9-25.6 9.9-16.9 19.8-33.7 29.3-50.7 9.3-16.5 18.4-33.3 26.2-50.3 3-6.6 6-13.3 8.3-20.1 1.4-4 2.9-9.1 2.9-13.3 0-17.7-8.6-34.4-23.9-46.9-15.4-12.5-36-19.4-57.8-19.4-21.7 0-42.4 6.9-57.8 19.4-15.4 12.5-23.9 29.3-23.9 46.9 0 4.2 1.6 9.3 2.9 13.3 2.3 6.8 5.2 13.5 8.3 20.1 7.9 17 17 33.8 26.2 50.3 9.5 17 19.4 33.9 29.3 50.7 3 5.1 6.1 10.3 9.2 15.4 2.1 3.4 4.1 6.8 5.9 10.2zm36.8-130c-9.8 8-23 12.4-36.9 12.4-13.9 0-27.1-4.4-36.9-12.4-9.8-8-15.3-18.7-15.3-30s5.5-22 15.3-30 23-12.4 36.9-12.4c13.9 0 27.1 4.4 36.9 12.4s15.3 18.7 15.3 30-5.4 22-15.3 30z" style="fill-rule:evenodd;clip-rule:evenodd;fill:#5b657f"/><path d="M3260.6 1770c-1.2 6-7.1 26-9 32h-91.2v-5.4c17.9-1.7 19.4-2.7 19.4-19.1V1701c0-16.4-2-17.3-17.7-18.9v-5.4h52.6v5.4c-15.7 1.5-17.9 2.3-17.9 18.9v78.4c0 11.7 1.6 14.4 12.8 14.6.2 0 14.3.2 15.5.2 10 0 12.9-1.2 17.5-6 4.9-5 9-12.7 12-19.8l6 1.6zM3334.2 1804.3c-2.9 0-7.3-1.5-9.2-3.7-2.6-2.5-3.7-5.2-4.7-8.7-7.8 5.2-17.5 12.3-23.5 12.3-13.9 0-23.9-11.4-23.9-23.7 0-9.4 5.3-15.6 16.1-19.3 12-4 26.7-9.1 31-12.5v-3.9c0-13.7-7.1-21.6-17.3-21.6-4.5 0-7.3 2.1-9.2 4.4-2.2 2.7-3.5 6.9-5.3 12.5-1 3.1-2.7 4.4-5.7 4.4-3.7 0-8.6-3.9-8.6-8.5 0-2.7 2.6-5 6.5-7.7 5.7-4 17.1-11.2 28.2-13.5 5.9 0 12 1.7 16.5 5.2 6.9 5.8 10 12.3 10 22.3v37.2c0 8.9 3.3 11.6 6.9 11.6 2.4 0 4.9-1 7.1-2.1l2 5.4-16.9 9.9zm-14.4-48.7c-4.3 2.1-13.7 6.2-18.2 8.1-7.5 3.3-12 6.9-12 14.1 0 10.2 7.8 14.8 14.1 14.8 5.1 0 12.2-3.1 16.1-6.9v-30.1zM3397.5 1801.8c-3.3 1.7-6.5 2.5-8.4 2.5-12.6 0-19.2-7.5-19.2-22.9v-56h-13.5l-.8-2.3 5.3-5.6h9v-16.2c3.7-3.9 9.4-8.9 13.1-12.7l2.9.4c-.4 8.1-.6 19.3-.6 28.5h22.4c1.8 1.9 1.2 6.2-1.2 7.9h-21.2v49.3c0 15.6 6.3 18.5 11.4 18.5 4.7 0 9.2-1.7 12-3.1l1.8 5-13 6.7zM3481.7 1804.3c-2.9 0-7.3-1.5-9.2-3.7-2.6-2.5-3.7-5.2-4.7-8.7-7.8 5.2-17.5 12.3-23.5 12.3-13.9 0-23.9-11.4-23.9-23.7 0-9.4 5.3-15.6 16.1-19.3 12-4 26.7-9.1 31-12.5v-3.9c0-13.7-7.1-21.6-17.3-21.6-4.5 0-7.3 2.1-9.2 4.4-2.2 2.7-3.5 6.9-5.3 12.5-1 3.1-2.7 4.4-5.7 4.4-3.7 0-8.6-3.9-8.6-8.5 0-2.7 2.6-5 6.5-7.7 5.7-4 17.1-11.2 28.2-13.5 5.9 0 12 1.7 16.5 5.2 6.9 5.8 10 12.3 10 22.3v37.2c0 8.9 3.3 11.6 6.9 11.6 2.4 0 4.9-1 7.1-2.1l2 5.4-16.9 9.9zm-14.3-48.7c-4.3 2.1-13.7 6.2-18.2 8.1-7.5 3.3-12 6.9-12 14.1 0 10.2 7.8 14.8 14.1 14.8 5.1 0 12.2-3.1 16.1-6.9v-30.1zM3602.1 1797.2c-4.1.8-18.8 3.1-30.4 7.1v-12.5c-3.5 2.1-8.6 4.8-12.2 6.9-7.8 4.4-13.1 5.6-15.5 5.6-15.7 0-36.5-15.4-36.5-42.4 0-26.8 23.9-46.8 50.8-46.8 2.7 0 9.2.4 13.3 2.1v-28.3c0-12.3-1.4-12.7-15.3-13.9v-5c9.8-1.3 23.5-4 30.8-6.5v116.1c0 10 1.4 11.4 8.6 11.7l6.3.4v5.5zm-30.4-64.8c-4.5-6.7-12.9-9.8-20.6-9.8-9.4 0-26.1 6.2-26.1 33.9 0 23.3 14.7 35.6 27.3 35.8 7.1 0 14.7-3.5 19.4-6.9v-53zM3611.3 1802v-5.4c12.4-1.2 13.7-2.1 13.7-15.2v-39.7c0-11.9-.6-12.7-12.4-14.6v-4.6c10.2-1.7 19.4-4.2 27.9-7.7v66.7c0 13.1 1.4 14.1 14.1 15.2v5.4h-43.3zm20.4-106.2c-5.5 0-10.4-4.8-10.4-10.2 0-6.2 4.9-10.6 10.6-10.6 5.5 0 10 4.4 10 10.6 0 5.4-4.5 10.2-10.2 10.2zM3727.7 1804.3c-2.9 0-7.3-1.5-9.2-3.7-2.6-2.5-3.7-5.2-4.7-8.7-7.8 5.2-17.5 12.3-23.5 12.3-13.9 0-23.9-11.4-23.9-23.7 0-9.4 5.3-15.6 16.1-19.3 12-4 26.7-9.1 31-12.5v-3.9c0-13.7-7.1-21.6-17.3-21.6-4.5 0-7.3 2.1-9.2 4.4-2.2 2.7-3.5 6.9-5.3 12.5-1 3.1-2.7 4.4-5.7 4.4-3.7 0-8.6-3.9-8.6-8.5 0-2.7 2.6-5 6.5-7.7 5.7-4 17.1-11.2 28.2-13.5 5.9 0 12 1.7 16.5 5.2 6.9 5.8 10 12.3 10 22.3v37.2c0 8.9 3.3 11.6 6.9 11.6 2.4 0 4.9-1 7.1-2.1l2 5.4-16.9 9.9zm-14.4-48.7c-4.3 2.1-13.7 6.2-18.2 8.1-7.5 3.3-12 6.9-12 14.1 0 10.2 7.8 14.8 14.1 14.8 5.1 0 12.2-3.1 16.1-6.9v-30.1zM3796.1 1764.6l2.4-12.3h73.8l-2.2 12.3h-74zm9-38.7 2.4-12.5h73.6l-2.2 12.5h-73.8zm27.5-41.2h8l-25.3 112.7h-8.2l25.5-112.7zm30.2 0h8l-25.3 112.7h-8.2l25.5-112.7zM3958.3 1766.9v14.6c0 12.7.8 13.7 14.7 15v5.4h-45.9v-5.4c14.7-1.3 15.7-2.5 15.7-15.2v-14.4H3891v-5.8c18.6-26 38.8-54.1 58.5-80.9h8.8v77.4h19.2v9.2h-19.2zm-15.5-66.4c-12.4 17.7-26.1 37.4-39.6 57.2h39.6v-57.2zM4070.3 1776.4c-2.6 8.7-5.9 18.5-7.8 25.6h-74v-4.6c10.8-10.4 22.6-21.8 32.2-32.7 12.4-14.3 24.1-29.7 24.1-46.4 0-16-8.6-25.2-23-25.2-13.5 0-22 10.4-27.1 17.9l-4.5-4 11.2-15.6c6.1-6.7 15.5-11.6 26.9-11.6 18.6 0 33.3 12.5 33.3 33.3 0 16.4-6.1 27.9-24.7 46.6-8.4 8.7-20.8 20.4-29.2 28.3h37.5c10.6 0 13.5-1 20.2-13.1l4.9 1.5zM4148.6 1766.9v14.6c0 12.7.8 13.7 14.7 15v5.4h-45.9v-5.4c14.7-1.3 15.7-2.5 15.7-15.2v-14.4h-51.8v-5.8c18.6-26 38.8-54.1 58.5-80.9h8.8v77.4h19.2v9.2h-19.2zm-15.5-66.4c-12.4 17.7-26.1 37.4-39.6 57.2h39.6v-57.2zM4252.6 1682l1.2 1.5-5.1 12.7h-45.1c-1.8 10.6-4.3 25.6-6.1 35.1 7.5-2.7 18.2-5.6 23.1-5.6 24.1 0 36.9 16.8 36.9 32.7 0 11.6-4.9 22.7-16.9 32.4-10.8 8.5-24.3 13.5-34.7 13.5-9.2 0-16.5-3.7-20.4-7.5-2.7-2.5-3.5-4-3.1-6.5 0-1.7 1.6-4.6 4.1-6.5 1.8-1.2 3.5-1.5 5.5 0 5.7 5 12.6 10.6 24.7 10.6 16.5 0 24.3-13.9 24.3-28.3 0-16.9-10.4-29.1-32.2-29.1-8 0-14.5 1.7-19.6 3.5l-.6-.8c2.9-15 7.3-42.2 9.4-57.6h54.6z" class="st17"/><path d="M1758.3 1827.8c-9.5 7.7-21.6 11.5-35.2 11.5-28.9 0-54.5-24.9-54.3-70.2.2-48.3 30.5-81.8 64.6-81.8 31.8 0 50.8 27.6 50.8 58.5 0 30.3-18.5 54.6-40.4 54.6-10 0-10.7-8.8-9-19l1.4-8.8c-6.4 12.3-19.9 27.8-28 27.8-5.4 0-9.6-6.9-9.6-21.5 0-11.9 3.7-28.6 12.9-40.1 7.5-9.4 16.1-15.5 27.4-15.5 5.2 0 12.1 1.9 15.3 2.7-2.9 14.6-5.7 32.4-8 47.3-2.1 14.4-.8 18 5.1 18 10.6 0 24.2-15.7 24.2-45.4 0-30.9-19-50.6-43.5-50.6-33.7 0-53 32-53 71.3 0 32.6 14.1 64 49.6 64 13.2 0 23.9-5.2 28.5-8.4l1.2 5.6zm-26.3-96.4c-5.1 0-9.6 2.7-12.6 6.9-4.7 6.5-9.3 20.5-9.5 36.6 0 9.4 1.8 13.6 4.4 13.6 4.4 0 19.9-15.7 23.9-33.9 1.7-7.7 2.9-14 4-20.9-2.3-1.3-5.6-2.3-10.2-2.3zM1835.6 1740.4c-2.8-11.1-6.7-18.8-16.1-18.8-5.4 0-9.5 4.8-9.5 12.5 0 8.2 4.4 12.1 13 17.1 13.2 7.9 19.7 13.6 19.7 26.3 0 17.6-12.9 26.6-25 26.6-8 0-15-3.1-18.2-5.4-.8-5.6-2.1-16.1-2.8-22.4l4.4-1c2.8 12.3 8.1 22.2 18.8 22.2 5.8 0 10.7-5 10.7-13 0-8.6-4.1-13-12.2-18-10.7-6.5-19.4-12.7-19.4-26.5 0-14 9.5-24.7 23.9-24.7 6.4 0 11.6 1.9 14.7 2.5.5 4.6 1.5 16.7 2.3 21.3l-4.3 1.3zM1884.6 1717.2c2.6-1.3 4.9-1.9 6.7-1.9 16.4 0 30.2 17.8 30.2 40.6 0 25.9-17.8 48.3-37.8 48.1-6.6 0-15.2-1.9-23.6-6.9v-107.7c0-11.9-.5-13-10.3-14v-5c7.2-1.1 16.7-4 22.3-6.5v60l12.5-6.7zm-12.4 62.3c0 3.1.2 4.8.8 6.7 1.8 4.8 7.8 10.4 15.2 10.4 13.2 0 19.7-14.2 19.7-35.8 0-21.9-10.6-34.7-23.3-34.7-4.4 0-9.5 1.7-12.4 3.6v49.8zM1981.5 1804.1c-2.3 0-5.7-1.5-7.2-3.6-2-2.5-2.9-5.2-3.7-8.6-6.1 5.2-13.6 12.3-18.4 12.3-10.9 0-18.7-11.3-18.7-23.6 0-9.4 4.1-15.5 12.6-19.2 9.3-4 20.8-9 24.2-12.5v-3.8c0-13.6-5.5-21.5-13.5-21.5-3.5 0-5.7 2.1-7.2 4.4-1.7 2.7-2.8 6.9-4.1 12.5-.8 3.1-2.1 4.4-4.4 4.4-2.9 0-6.7-3.8-6.7-8.4 0-2.7 2-5 5.1-7.7 4.4-4 13.3-11.1 22-13.4 4.6 0 9.3 1.7 12.9 5.2 5.4 5.8 7.8 12.3 7.8 22.2v37c0 8.8 2.6 11.5 5.4 11.5 1.8 0 3.8-1 5.5-2.1l1.5 5.4-13.1 9.5zm-11.2-48.5c-3.4 2.1-10.7 6.1-14.2 8.1-5.8 3.3-9.3 6.9-9.3 14 0 10.2 6.1 14.8 11 14.8 4 0 9.5-3.1 12.6-6.9-.1-9.1-.1-21-.1-30zM2044.9 1801.8v-5.4c8.9-1.2 9.8-2.5 9.8-15.5v-31.6c0-13.4-3.8-22.4-13.9-22.4-6.3 0-12.2 4.6-17 10v44.9c0 13.2.9 13.6 9.9 14.8v5.4h-33.1v-5.4c10.1-1.3 11-2.1 11-14.8v-39.5c0-12.5-1.1-13-9.3-14.8v-5c7.5-1.5 15-4 21.4-7.7v15.1c3.1-2.7 6.4-5.6 10.4-8.8 4.3-3.5 8.3-5.8 12.7-5.8 12.2 0 19.9 11.3 19.9 29.9v36.4c0 13 .9 13.6 9.8 14.8v5.4h-31.6zM2160.1 1797c-3.2.8-14.7 3.1-23.7 7.1v-12.5c-2.8 2.1-6.7 4.8-9.5 6.9-6.1 4.4-10.3 5.6-12.1 5.6-12.2 0-28.5-15.3-28.5-42.2 0-26.6 18.7-46.6 39.6-46.6 2.1 0 7.2.4 10.4 2.1v-28.2c0-12.3-1.1-12.7-11.9-13.8v-5c7.7-1.3 18.4-4 24-6.5v115.6c0 10 1.1 11.3 6.7 11.7l4.9.4v5.4zm-23.7-64.4c-3.5-6.7-10.1-9.8-16.1-9.8-7.3 0-20.4 6.1-20.4 33.7 0 23.2 11.5 35.5 21.3 35.7 5.5 0 11.5-3.5 15.2-6.9v-52.7zM2202.7 1801.8h-35.2v-5.4c9.6-1.2 10.6-2.1 10.6-14.6V1742c0-12.7-.6-13.2-9.5-14.6v-4.8c7.5-1.5 14.4-3.8 21.6-7.9v21.1c5.4-10 11.8-20.5 19.4-20.5 5.7 0 8.9 4.4 8.9 9.2 0 4.4-2.4 8.6-5.2 10.5-1.5 1.2-2.8 1-4-.4-2.3-2.9-4.1-4.8-6.9-4.8-3.2 0-8.9 5.9-12.2 15.7v36c0 12.7.8 13.6 12.6 14.8v5.5zM2280.6 1785.5c-9.8 15.3-20.5 18.6-25.4 18.6-18.7 0-30-19.2-30-41.2 0-13 3.7-25.1 9.9-33.5 6.4-9 14.8-14 22.8-14 13.3 0 23.4 14.4 23.4 29.7-.2 3.8-.6 5.6-3.1 6.3-3.1.8-22.7 2.5-40.9 3.3-.5 25.7 12.1 36.2 23 36.2 6.3 0 12.1-3.3 17.8-9.8l2.5 4.4zm-26.3-62.9c-7 0-13.9 8.2-16.1 23.8 8.6 0 17.1 0 26.2-.6 2.8 0 3.7-1 3.7-3.8.1-10.2-5.3-19.4-13.8-19.4zM2330.5 1740.4c-2.8-11.1-6.7-18.8-16.1-18.8-5.4 0-9.5 4.8-9.5 12.5 0 8.2 4.4 12.1 13 17.1 13.2 7.9 19.7 13.6 19.7 26.3 0 17.6-12.9 26.6-25 26.6-8 0-15-3.1-18.2-5.4-.8-5.6-2.1-16.1-2.8-22.4l4.4-1c2.8 12.3 8.1 22.2 18.8 22.2 5.8 0 10.7-5 10.7-13 0-8.6-4.1-13-12.2-18-10.7-6.5-19.4-12.7-19.4-26.5 0-14 9.5-24.7 23.9-24.7 6.4 0 11.6 1.9 14.7 2.5.5 4.6 1.5 16.7 2.3 21.3l-4.3 1.3zM2414.8 1722.8c-8.3 1.3-9.3 2.9-13.3 14.4-5.1 15.3-13.8 40.8-21.7 66.7h-4.4c-6.4-22-13.9-44.9-21.1-67.3-3.5-11.1-4.7-12.3-12.7-13.8v-5.2h31.2v5.2c-8.4 1.3-8.7 2.7-6.3 10.9 3.8 13.2 10.3 33.5 14.5 47 5.5-17.1 10.6-32.8 13.9-45 2.6-9.4 2.1-11.5-8-12.8v-5.2h27.9v5.1zM2465.9 1804.1c-2.3 0-5.7-1.5-7.2-3.6-2-2.5-2.9-5.2-3.7-8.6-6.1 5.2-13.6 12.3-18.4 12.3-10.9 0-18.7-11.3-18.7-23.6 0-9.4 4.1-15.5 12.6-19.2 9.3-4 20.8-9 24.2-12.5v-3.8c0-13.6-5.5-21.5-13.5-21.5-3.5 0-5.7 2.1-7.2 4.4-1.7 2.7-2.8 6.9-4.1 12.5-.8 3.1-2.1 4.4-4.4 4.4-2.9 0-6.7-3.8-6.7-8.4 0-2.7 2-5 5.1-7.7 4.4-4 13.3-11.1 22-13.4 4.6 0 9.3 1.7 12.9 5.2 5.4 5.8 7.8 12.3 7.8 22.2v37c0 8.8 2.6 11.5 5.4 11.5 1.8 0 3.8-1 5.5-2.1l1.5 5.4-13.1 9.5zm-11.1-48.5c-3.4 2.1-10.7 6.1-14.2 8.1-5.8 3.3-9.3 6.9-9.3 14 0 10.2 6.1 14.8 11 14.8 4 0 9.5-3.1 12.6-6.9-.1-9.1-.1-21-.1-30zM2483.1 1801.8v-5.4c9.8-1.2 11-2.1 11-14.8v-91.8c0-11.7-.8-12.8-10.6-14.4v-5c8.3-1.1 17.8-4.2 22.7-6.5v117.7c0 12.7.9 13.6 10.9 14.8v5.4h-34zM2581.4 1785.5c-9.8 15.3-20.5 18.6-25.4 18.6-18.7 0-30-19.2-30-41.2 0-13 3.7-25.1 9.9-33.5 6.4-9 14.8-14 22.8-14 13.3 0 23.4 14.4 23.4 29.7-.2 3.8-.6 5.6-3.1 6.3-3.1.8-22.7 2.5-40.9 3.3-.5 25.7 12.1 36.2 23 36.2 6.3 0 12.1-3.3 17.8-9.8l2.5 4.4zm-26.4-62.9c-7 0-13.9 8.2-16.1 23.8 8.6 0 17.1 0 26.2-.6 2.8 0 3.7-1 3.7-3.8.2-10.2-5.2-19.4-13.8-19.4zM2635.2 1801.8v-5.4c8.9-1.2 9.8-2.5 9.8-15.5v-31.6c0-13.4-3.8-22.4-13.9-22.4-6.3 0-12.2 4.6-17 10v44.9c0 13.2.9 13.6 9.9 14.8v5.4h-33v-5.4c10.1-1.3 11-2.1 11-14.8v-39.5c0-12.5-1.1-13-9.3-14.8v-5c7.5-1.5 15-4 21.4-7.7v15.1c3.1-2.7 6.4-5.6 10.4-8.8 4.3-3.5 8.3-5.8 12.7-5.8 12.2 0 19.9 11.3 19.9 29.9v36.4c0 13 .9 13.6 9.8 14.8v5.4h-31.7zM2733.8 1784.5c-6.7 11.1-17 19.6-26.2 19.6-19.4 0-30.9-19.7-30.9-40.3 0-15.1 5.2-27.8 15.5-37.6 8.1-7.9 17.3-10.9 23.3-10.9 6.9 0 11.9 2.7 14.2 5.2 2.1 2.1 2.4 3.5 2.4 5.6 0 4.6-3.8 8.6-5.5 8.6-.8 0-1.4-.4-2.9-1.9-4.7-5.4-10-8.1-15.5-8.1-10.1 0-19 10.7-19 30.7-.2 26.6 14.4 35.5 23.3 35.5 6.4 0 11.6-2.1 18.7-10.5l2.6 4.1zM2741.3 1801.8v-5.4c9.6-1.2 10.7-2.1 10.7-15.1v-39.5c0-11.9-.5-12.7-9.6-14.6v-4.6c8-1.7 15.2-4.2 21.7-7.7v66.4c0 13 1.1 14 11 15.1v5.4h-33.8zm15.9-105.7c-4.3 0-8.1-4.8-8.1-10.2 0-6.1 3.8-10.5 8.3-10.5 4.3 0 7.8 4.4 7.8 10.5 0 5.4-3.5 10.2-8 10.2zM2832.1 1804.1c-2.3 0-5.7-1.5-7.2-3.6-2-2.5-2.9-5.2-3.7-8.6-6.1 5.2-13.6 12.3-18.4 12.3-10.9 0-18.7-11.3-18.7-23.6 0-9.4 4.1-15.5 12.6-19.2 9.3-4 20.8-9 24.2-12.5v-3.8c0-13.6-5.5-21.5-13.5-21.5-3.5 0-5.7 2.1-7.2 4.4-1.7 2.7-2.8 6.9-4.1 12.5-.8 3.1-2.1 4.4-4.4 4.4-2.9 0-6.7-3.8-6.7-8.4 0-2.7 2-5 5.1-7.7 4.4-4 13.3-11.1 22-13.4 4.6 0 9.3 1.7 12.9 5.2 5.4 5.8 7.8 12.3 7.8 22.2v37c0 8.8 2.6 11.5 5.4 11.5 1.8 0 3.8-1 5.5-2.1l1.5 5.4-13.1 9.5zm-11.2-48.5c-3.4 2.1-10.7 6.1-14.2 8.1-5.8 3.3-9.3 6.9-9.3 14 0 10.2 6.1 14.8 11 14.8 4 0 9.5-3.1 12.6-6.9-.1-9.1-.1-21-.1-30zM294.2 1804.1c-2 0-5-1.5-6.4-3.6-1.8-2.5-2.6-5.2-3.3-8.6-5.4 5.2-12.1 12.3-16.3 12.3-9.7 0-16.6-11.3-16.6-23.6 0-9.4 3.7-15.5 11.2-19.2 8.3-4 18.5-9 21.5-12.5v-3.8c0-13.6-4.9-21.5-12-21.5-3.1 0-5 2.1-6.4 4.4-1.5 2.7-2.4 6.9-3.7 12.5-.7 3.1-1.9 4.4-3.9 4.4-2.6 0-6-3.8-6-8.4 0-2.7 1.8-5 4.5-7.7 3.9-4 11.8-11.1 19.6-13.4 4.1 0 8.3 1.7 11.4 5.2 4.8 5.8 6.9 12.3 6.9 22.2v37c0 8.8 2.3 11.5 4.8 11.5 1.6 0 3.4-1 4.9-2.1l1.4 5.4-11.6 9.5zm-9.9-48.5c-3 2.1-9.5 6.1-12.7 8.1-5.2 3.3-8.3 6.9-8.3 14 0 10.2 5.4 14.8 9.8 14.8 3.5 0 8.4-3.1 11.2-6.9v-30zM350.6 1801.8v-5.4c7.9-1.2 8.7-2.5 8.7-15.5v-31.6c0-13.4-3.4-22.4-12.4-22.4-5.6 0-10.9 4.6-15.1 10v44.9c0 13.2.8 13.6 8.8 14.8v5.4h-29.4v-5.4c9-1.3 9.8-2.1 9.8-14.8v-39.5c0-12.5-1-13-8.3-14.8v-5c6.7-1.5 13.3-4 19-7.7v15.1c2.7-2.7 5.7-5.6 9.3-8.8 3.8-3.5 7.3-5.8 11.3-5.8 10.9 0 17.7 11.3 17.7 29.9v36.4c0 13 .8 13.6 8.7 14.8v5.4h-28.1zM453 1797c-2.9.8-13.1 3.1-21.1 7.1v-12.5c-2.4 2.1-6 4.8-8.4 6.9-5.4 4.4-9.1 5.6-10.7 5.6-10.9 0-25.3-15.3-25.3-42.2 0-26.6 16.6-46.6 35.2-46.6 1.9 0 6.4.4 9.3 2.1v-28.2c0-12.3-1-12.7-10.6-13.8v-5c6.8-1.3 16.3-4 21.4-6.5v115.6c0 10 1 11.3 6 11.7l4.4.4v5.4zm-21.1-64.4c-3.1-6.7-9-9.8-14.3-9.8-6.5 0-18.1 6.1-18.1 33.7 0 23.2 10.2 35.5 18.9 35.7 4.9 0 10.2-3.5 13.5-6.9v-52.7zM490.8 1801.8h-31.3v-5.4c8.6-1.2 9.4-2.1 9.4-14.6V1742c0-12.7-.5-13.2-8.4-14.6v-4.8c6.7-1.5 12.8-3.8 19.2-7.9v21.1c4.8-10 10.5-20.5 17.3-20.5 5 0 7.9 4.4 7.9 9.2 0 4.4-2.2 8.6-4.6 10.5-1.4 1.2-2.4 1-3.5-.4-2-2.9-3.7-4.8-6.1-4.8-2.9 0-7.9 5.9-10.9 15.7v36c0 12.7.7 13.6 11.2 14.8v5.5zM560.1 1785.5c-8.7 15.3-18.2 18.6-22.6 18.6-16.6 0-26.7-19.2-26.7-41.2 0-13 3.3-25.1 8.8-33.5 5.7-9 13.2-14 20.3-14 11.8 0 20.8 14.4 20.8 29.7-.1 3.8-.5 5.6-2.7 6.3-2.7.8-20.1 2.5-36.3 3.3-.4 25.7 10.7 36.2 20.4 36.2 5.6 0 10.7-3.3 15.8-9.8l2.2 4.4zm-23.4-62.9c-6.3 0-12.4 8.2-14.3 23.8 7.6 0 15.2 0 23.3-.6 2.4 0 3.3-1 3.3-3.8.1-10.2-4.7-19.4-12.3-19.4zM604.5 1740.4c-2.4-11.1-6-18.8-14.3-18.8-4.8 0-8.4 4.8-8.4 12.5 0 8.2 3.9 12.1 11.6 17.1 11.7 7.9 17.6 13.6 17.6 26.3 0 17.6-11.4 26.6-22.2 26.6-7.1 0-13.3-3.1-16.2-5.4-.7-5.6-1.9-16.1-2.4-22.4l3.9-1c2.4 12.3 7.2 22.2 16.7 22.2 5.2 0 9.5-5 9.5-13 0-8.6-3.7-13-10.9-18-9.5-6.5-17.3-12.7-17.3-26.5 0-14 8.4-24.7 21.2-24.7 5.7 0 10.3 1.9 13.1 2.5.4 4.6 1.4 16.7 2 21.3l-3.9 1.3zM679.4 1722.8c-7.3 1.3-8.3 2.9-11.8 14.4-4.5 15.3-12.2 40.8-19.3 66.7h-3.9c-5.7-22-12.4-44.9-18.8-67.3-3.1-11.1-4.2-12.3-11.3-13.8v-5.2H642v5.2c-7.5 1.3-7.8 2.7-5.6 10.9 3.4 13.2 9.1 33.5 12.9 47 4.9-17.1 9.4-32.8 12.4-45 2.3-9.4 1.9-11.5-7.1-12.8v-5.2h24.8v5.1zM724.9 1804.1c-2 0-5-1.5-6.4-3.6-1.8-2.5-2.6-5.2-3.3-8.6-5.4 5.2-12.1 12.3-16.3 12.3-9.7 0-16.6-11.3-16.6-23.6 0-9.4 3.7-15.5 11.2-19.2 8.3-4 18.5-9 21.5-12.5v-3.8c0-13.6-4.9-21.5-12-21.5-3.1 0-5 2.1-6.4 4.4-1.5 2.7-2.4 6.9-3.7 12.5-.7 3.1-1.9 4.4-3.9 4.4-2.6 0-6-3.8-6-8.4 0-2.7 1.8-5 4.5-7.7 3.9-4 11.8-11.1 19.6-13.4 4.1 0 8.3 1.7 11.4 5.2 4.8 5.8 6.9 12.3 6.9 22.2v37c0 8.8 2.3 11.5 4.8 11.5 1.6 0 3.4-1 4.9-2.1l1.4 5.4-11.6 9.5zm-10-48.5c-3 2.1-9.5 6.1-12.7 8.1-5.2 3.3-8.3 6.9-8.3 14 0 10.2 5.4 14.8 9.8 14.8 3.5 0 8.4-3.1 11.2-6.9v-30zM740.1 1801.8v-5.4c8.7-1.2 9.8-2.1 9.8-14.8v-91.8c0-11.7-.7-12.8-9.4-14.4v-5c7.3-1.1 15.8-4.2 20.1-6.5v117.7c0 12.7.8 13.6 9.7 14.8v5.4h-30.2zM827.5 1785.5c-8.7 15.3-18.2 18.6-22.6 18.6-16.6 0-26.7-19.2-26.7-41.2 0-13 3.3-25.1 8.8-33.5 5.7-9 13.2-14 20.3-14 11.8 0 20.8 14.4 20.8 29.7-.1 3.8-.5 5.6-2.7 6.3-2.7.8-20.1 2.5-36.3 3.3-.4 25.7 10.7 36.2 20.4 36.2 5.6 0 10.7-3.3 15.8-9.8l2.2 4.4zm-23.4-62.9c-6.3 0-12.4 8.2-14.3 23.8 7.6 0 15.2 0 23.3-.6 2.4 0 3.3-1 3.3-3.8 0-10.2-4.7-19.4-12.3-19.4zM875.4 1801.8v-5.4c7.9-1.2 8.7-2.5 8.7-15.5v-31.6c0-13.4-3.4-22.4-12.4-22.4-5.6 0-10.9 4.6-15.1 10v44.9c0 13.2.8 13.6 8.8 14.8v5.4H836v-5.4c9-1.3 9.8-2.1 9.8-14.8v-39.5c0-12.5-1-13-8.3-14.8v-5c6.7-1.5 13.3-4 19-7.7v15.1c2.7-2.7 5.7-5.6 9.3-8.8 3.8-3.5 7.3-5.8 11.3-5.8 10.9 0 17.7 11.3 17.7 29.9v36.4c0 13 .8 13.6 8.7 14.8v5.4h-28.1zM963 1784.5c-6 11.1-15.1 19.6-23.3 19.6-17.3 0-27.5-19.7-27.5-40.3 0-15.1 4.6-27.8 13.7-37.6 7.2-7.9 15.4-10.9 20.7-10.9 6.1 0 10.6 2.7 12.7 5.2 1.9 2.1 2.2 3.5 2.2 5.6 0 4.6-3.4 8.6-4.9 8.6-.7 0-1.2-.4-2.6-1.9-4.2-5.4-8.8-8.1-13.7-8.1-9 0-16.9 10.7-16.9 30.7-.1 26.6 12.8 35.5 20.7 35.5 5.7 0 10.3-2.1 16.6-10.5l2.3 4.1zM969.7 1801.8v-5.4c8.6-1.2 9.5-2.1 9.5-15.1v-39.5c0-11.9-.4-12.7-8.6-14.6v-4.6c7.1-1.7 13.5-4.2 19.3-7.7v66.4c0 13 1 14 9.8 15.1v5.4h-30zm14.1-105.7c-3.8 0-7.2-4.8-7.2-10.2 0-6.1 3.4-10.5 7.3-10.5 3.8 0 6.9 4.4 6.9 10.5.1 5.4-3.1 10.2-7 10.2zM1050.3 1804.1c-2 0-5-1.5-6.4-3.6-1.8-2.5-2.6-5.2-3.3-8.6-5.4 5.2-12.1 12.3-16.3 12.3-9.7 0-16.6-11.3-16.6-23.6 0-9.4 3.7-15.5 11.2-19.2 8.3-4 18.5-9 21.5-12.5v-3.8c0-13.6-4.9-21.5-12-21.5-3.1 0-5 2.1-6.4 4.4-1.5 2.7-2.4 6.9-3.7 12.5-.7 3.1-1.9 4.4-3.9 4.4-2.6 0-6-3.8-6-8.4 0-2.7 1.8-5 4.5-7.7 3.9-4 11.8-11.1 19.6-13.4 4.1 0 8.3 1.7 11.4 5.2 4.8 5.8 6.9 12.3 6.9 22.2v37c0 8.8 2.3 11.5 4.8 11.5 1.6 0 3.4-1 4.9-2.1l1.4 5.4-11.6 9.5zm-9.9-48.5c-3 2.1-9.5 6.1-12.7 8.1-5.2 3.3-8.3 6.9-8.3 14 0 10.2 5.4 14.8 9.8 14.8 3.5 0 8.4-3.1 11.2-6.9v-30zM1103.1 1740.4c-2.4-11.1-6-18.8-14.3-18.8-4.8 0-8.4 4.8-8.4 12.5 0 8.2 3.9 12.1 11.6 17.1 11.7 7.9 17.6 13.6 17.6 26.3 0 17.6-11.4 26.6-22.2 26.6-7.1 0-13.3-3.1-16.2-5.4-.7-5.6-1.9-16.1-2.4-22.4l3.9-1c2.4 12.3 7.2 22.2 16.7 22.2 5.2 0 9.5-5 9.5-13 0-8.6-3.7-13-10.9-18-9.5-6.5-17.3-12.7-17.3-26.5 0-14 8.4-24.7 21.2-24.7 5.7 0 10.3 1.9 13.1 2.5.4 4.6 1.4 16.7 2 21.3l-3.9 1.3zM1146.7 1717.2c2.3-1.3 4.4-1.9 6-1.9 14.6 0 26.8 17.8 26.8 40.6 0 25.9-15.8 48.3-33.6 48.1-5.9 0-13.5-1.9-21-6.9v-107.7c0-11.9-.4-13-9.1-14v-5c6.4-1.1 14.8-4 19.9-6.5v60l11-6.7zm-11.1 62.3c0 3.1.1 4.8.7 6.7 1.6 4.8 6.9 10.4 13.5 10.4 11.7 0 17.6-14.2 17.6-35.8 0-21.9-9.4-34.7-20.7-34.7-3.9 0-8.4 1.7-11 3.6v49.8z" class="st14"/><g id="_x3C_insta_x3E_"><path d="M1393.8 1607.58c-47.29 3.19-73.51 19.82-82.13 52-3.12 11.5-3.18 12.58-3.39 61.07-.27 47.41.05 58.48 2.05 68.63 2.96 15.5 8.83 26.89 18.9 36.82 13.36 13.12 31.61 20.36 59.67 23.76 6.19.7 16.32.86 67.32 1.08 62.96.27 72.71.05 86.92-2.05 38.78-5.62 62.53-23.65 70.55-53.46 3.12-11.66 3.18-12.63 3.39-60.96.27-45.19-.11-58.85-1.72-67.93-2.64-15.06-8.4-26.67-17.61-35.53-5.65-5.45-9.69-8.21-17.34-11.82-12.6-6.05-26.44-9.29-47.72-11.12-8.72-.76-128.55-1.14-138.89-.49zm142.07 22.89c24.88 3.24 39.37 11.72 47.34 27.65 3.72 7.45 5.71 16.09 6.62 28.67.75 11.12.32 89.58-.54 94.65-1.83 10.85-5.17 19.44-10.02 25.81-7.38 9.77-20.3 15.71-39.64 18.25-6.46.86-14 .97-71.58 1.19-67.27.22-76.1 0-88.27-2.11-23.91-4.05-36.57-15.44-41.69-37.47-1.08-4.7-1.13-6.37-1.29-55.88-.16-44.33-.11-51.78.65-56.86 4.15-28.19 22.3-42.06 58.43-44.6 3.72-.27 35.11-.43 69.74-.38 56.52.11 63.79.22 70.25 1.08z" class="st11"/><path d="M1540.93 1649.69c-8.4 1.78-14.16 7.61-14.16 14.25.05 3.62 1.45 6.53 4.52 9.4 7.38 6.8 20.3 6.86 28.01.11 4.31-3.83 5.65-10.1 3.12-14.9-1.56-3.02-5.55-6.43-8.94-7.72-3.39-1.25-9.37-1.79-12.55-1.14zM1448.41 1666.7c-19.07 2.81-35.38 10.48-47.82 22.41-17.07 16.36-22.35 37.63-14.6 58.42 5.22 13.93 18.53 27.38 34.95 35.26 28.87 13.88 66.73 11.77 92.63-5.13 14.65-9.61 24.02-21.98 28.01-36.99.48-1.78.97-6.16 1.13-9.72.75-15.44-5.01-28.94-17.5-41.31-15.83-15.71-37.48-23.81-63.07-23.7-4.9.06-11.09.38-13.73.76zm25.9 23.22c24.88 4.27 42.44 22.14 40.93 41.58-2.21 27.38-37.97 45.14-71.09 35.31-19.66-5.83-33.18-21.22-33.18-37.74 0-18.79 18.2-35.91 41.79-39.36 5.29-.76 16.44-.66 21.55.21z" class="st11"/></g><path d="M4528.9 1608.2c-57.9 6.5-106.8 37.2-124.1 78-5.7 13.4-7.2 20.9-7.2 36.9 0 12.4.4 15.9 2.6 24.3 2.9 10.9 9.4 25.2 15.5 34.2 3.8 5.6 4 6.1 2.7 9-5.6 13.1-24.9 55.1-26.1 57-1.5 2.3-.5 4.3 1.5 3 1.6-.9 79.2-19.5 81.8-19.5 1.3 0 6.8 1.5 12.2 3.4 38.2 13.3 84.8 12.5 124.6-2.1 12-4.4 28.5-13.4 38.6-21 21.2-15.9 35.1-35.6 42.6-60 2.4-8 2.6-10.4 2.7-25.8.1-20-1.3-26.5-9.3-43-19.4-39.8-63.2-67.9-116.1-74.4-9.7-1.3-31-1.2-42 0zm28.9 16.9c34.1 3 62.3 14.9 83.5 35 14.4 13.7 22.9 27.4 27.8 44.5 3.3 12 3.1 30.6-.6 43-19.8 65.6-109.6 97.7-184.3 65.8-8.1-3.5-8.1-3.5-32.3 4.2-13.3 4.2-24.9 7.5-25.6 7.3-1-.2 1.7-6 8.9-18.8 10.3-18.4 10.3-18.4 4.2-26-13.8-17.1-20.5-35.1-20.5-55.1 0-50.7 48.8-94.2 111.9-99.9 12.6-1.1 14.5-1.1 27 0z" class="st11"/><path d="M4494.2 1672.1c-10.6 2.2-16.3 7.7-18.9 18.3-1.4 5.4-1.5 7.9-.6 13.8 1 6.3 1.8 8.4 6.8 15.8 7.8 11.5 25.4 29 37.3 37 24.8 16.5 53.5 26.2 73.2 24.8 17.5-1.4 29.4-10.2 31.5-23.5.5-3.4.3-4.2-1.7-5.6-3.2-2.2-20.8-9-29.1-11.2-6.6-1.8-6.6-1.8-14.8 5.9-6 5.7-8.9 7.7-10.8 7.7-3.7 0-23.2-9.6-32.8-16.1-8.5-5.7-19.8-16.4-20.9-19.8-.5-1.7.6-3.5 5.5-8.8 7.3-7.8 7.3-7.9.6-21.8-6.1-12.5-9.7-16.2-16.1-16.9-2.7-.2-6.9-.1-9.2.4z" class="st11"/></g></svg>