<svg xmlns="http://www.w3.org/2000/svg" id="Capa_1" data-name="Capa 1" viewBox="0 0 4846.6 990"><defs><style>.cls-1{fill:#050506}.cls-2{fill:#5c6580}</style></defs><g id="logo2025"><path d="m1591.5 541.35-40.2 66.3h29.9l-4 18.8h-72.9l3.8-18.8h17.6l163.4-269.5h24.7l49.1 269.5h17.4l-3.8 18.8h-90.9l3.8-18.8h29.9l-12.2-66.3Zm11.3-18.8h100.9l-23.5-127.7ZM1827.5 626.35l39.7-189h-32.8l4.2-19h72.5l-4 19-13.9 66.3q26.25-41.7 56.9-65.9t56.9-24.2c10.4 0 18.8 3.4 25.3 10.1s9.8 15.4 9.8 26.1c0 5.8-1.3 14.8-3.8 27.1l-27.6 130.5h33l-4 19h-72.8l31.5-150a61 61 0 0 0 1.2-11.6c0-5.7-1.3-9.9-3.8-12.7s-6.4-4.2-11.5-4.2q-38.1 0-100.3 100l-16.5 78.5ZM2225.8 626.35l3.8-19 14.5-68.6q-25.2 42-55.9 67.2t-57.3 25.2c-13.2 0-23.6-4.3-31.4-12.9s-11.7-20.3-11.7-35c0-41.7 15.4-80.3 46.1-116.1s64-53.6 99.7-53.6q11.25 0 35.7 4.8l15.8-75.5h-29.8l4-19h69.6l-59.5 283.4h29.8l-4 19h-69.4Zm27.4-130.2 10.8-51.7c-12.9-4.9-27.8-7.3-44.7-7.3q-31.8 0-50.1 23.2-14.25 18.15-26.7 54.5t-12.4 60c0 8.4 1.6 14.8 4.8 19.1s8 6.4 14.3 6.4q17.55 0 46.9-29.4t57.1-74.8ZM2358.9 626.35l39.7-189h-32.8l4.2-19h72.5l-4.1 19-13.8 66.3q58-90 111.6-90a29.41 29.41 0 0 1 9.9 1.7l-17.1 44.2a38.49 38.49 0 0 0-18.9-4.8q-34.2 0-94.8 93.7l-16.3 77.9ZM2728.7 593.25q-60.3 38-106.2 37.9-31 0-49.2-19.7t-18.1-53c0-42.3 15.9-77.9 47.8-107.1q41.1-37.8 86.1-37.7c13 0 23.8 3.8 32.4 11.3a36.4 36.4 0 0 1 12.8 28.5q0 38.55-37.4 63.3t-100.1 27.7l-.2 7.9c0 15.7 4.5 28.4 13.5 38.2s20.6 14.7 34.9 14.7q37.05 0 89.3-37.7Zm-130.6-64.5q45.15-3.45 71.4-21.5t26.2-45.3c0-8.3-2.1-14.5-6.2-18.6s-10.4-6.1-18.7-6.1c-16.8 0-31.9 8.5-45.5 25.5s-22.6 39-27.2 66ZM2764.4 614.55l8.1-38.9h25l-4.4 21.4q22.95 15.45 45.2 15.4c12 0 21.9-3 29.9-9s12-13.5 12-22.4-5.6-18.9-16.9-30.1l-21.2-21.1q-36.75-36.6-36.7-59.9c0-16.6 7.1-30.2 21.2-40.6s32.3-15.6 54.4-15.6c18.5 0 39.6 4.7 63.1 14.2l-8.3 38.9H2911l4.4-21.3c-12.4-8.7-25.1-13-38.3-13-9.8 0-18.1 2.8-24.9 8.5s-10.2 12.6-10.2 20.6q0 14.25 19.8 33l21 19.7c23.1 21.7 34.7 41.5 34.7 59.2 0 17.4-7.3 31.3-21.8 41.9s-33.8 15.8-57.9 15.8c-23.8-.1-48.3-5.6-73.4-16.7ZM3187.4 631.15l-52.2-269.5h-17.4l4-18.8h90.5l-4 18.8h-29.8l41.6 214.8 128.6-214.8h-29.9l3.8-18.8h73.1l-3.8 18.8-17.5.2-161.5 269.3ZM3516.7 626.35l3.9-19 14.4-68.4q-24.75 41.7-55.6 66.9t-57.4 25.2c-13.2 0-23.6-4.3-31.4-12.9s-11.7-20.3-11.7-35c0-41.7 15.4-80.3 46.1-116.1s63.9-53.6 99.7-53.6a114.49 114.49 0 0 1 14.6 1.2c6 .8 13 2 21.1 3.6h39.9l-39.7 189h33l-4.2 19h-72.7Zm27.3-130 10.9-51.9a98.64 98.64 0 0 0-20.6-5.5 150.16 150.16 0 0 0-24-1.8c-21.2 0-38 7.7-50.2 23.2-9.5 12.1-18.5 30.3-26.7 54.5s-12.4 44.2-12.4 60c0 8.4 1.6 14.8 4.8 19.1s8 6.4 14.3 6.4q17.55 0 46.9-29.3t57-74.7ZM3649.7 626.35l59.5-283.4h-29.8l4-19h69.6l-59.5 283.4h29.8l-4 19ZM3947 593.25q-60.3 38-106.2 37.9-31 0-49.2-19.7t-18.1-53c0-42.3 15.9-77.9 47.8-107.1q41.1-37.8 86.1-37.7c13 0 23.8 3.8 32.4 11.3a36.4 36.4 0 0 1 12.8 28.5q0 38.55-37.4 63.3t-100.1 27.7l-.2 7.9c0 15.7 4.5 28.4 13.5 38.2s20.6 14.7 34.9 14.7q37 0 89.3-37.7Zm-130.6-64.5q45.15-3.45 71.4-21.5t26.2-45.3c0-8.3-2.1-14.5-6.2-18.6s-10.4-6.1-18.7-6.1c-16.8 0-31.9 8.5-45.5 25.5s-22.6 39-27.2 66ZM4004.7 626.35l39.7-189h-32.8l4.2-19h72.5l-4 19-13.9 66.3q26.25-41.7 56.9-65.9t56.9-24.2c10.4 0 18.8 3.4 25.3 10.1s9.8 15.4 9.8 26.1c0 5.8-1.3 14.8-3.8 27.1l-27.6 130.5h33l-4 19h-72.8l31.5-150a61 61 0 0 0 1.2-11.6c0-5.7-1.3-9.9-3.8-12.7s-6.4-4.2-11.5-4.2q-38.1 0-100.3 100l-16.5 78.5ZM4420.3 608.15c-29.3 15.3-57.9 23-86 23q-31.35 0-49.1-19.3t-17.7-53.4q0-57 41.8-100.9t96-44a140 140 0 0 1 51.4 9.4l-9.3 43.7H4425l2.2-21.8a75.22 75.22 0 0 0-37.5-10q-30.9 0-54.9 35.4-24.15 35.4-24.1 80.8c0 16.5 4.1 29.6 12.4 39.4s19.3 14.7 33.1 14.7q33.15 0 69.2-22ZM4486 626.35l39.5-189h-32.7l4.2-19h72.3l-39.5 189h33l-4.2 19Zm51.4-245.7 7.9-37.7h39.9l-7.9 37.7ZM4745 626.35l3.9-19 14.4-68.4q-24.75 41.7-55.6 66.9t-57.4 25.2c-13.2 0-23.6-4.3-31.4-12.9s-11.7-20.3-11.7-35c0-41.7 15.4-80.3 46.1-116.1s63.9-53.6 99.7-53.6a114.49 114.49 0 0 1 14.6 1.2c6 .8 13 2 21.1 3.6h39.9l-39.7 189h33l-4.2 19H4745Zm27.3-130 10.9-51.9a98.64 98.64 0 0 0-20.6-5.5 150.16 150.16 0 0 0-24-1.8c-21.2 0-38 7.7-50.2 23.2-9.5 12.1-18.5 30.3-26.7 54.5s-12.4 44.2-12.4 60c0 8.4 1.6 14.8 4.8 19.1s8 6.4 14.3 6.4q17.55 0 46.9-29.3t57-74.7Z" class="cls-1"/><path d="M1460.7 667.05h3385.9v131.8H1460.7z" class="cls-2"/><path d="M1467.3 691.15h3379.3v82.2H1467.3z" style="fill:none"/><text style="isolation:isolate;font-size:118.89px;fill:#fff;font-family:ISOCTEUR" transform="matrix(1.6 0 0 1 2077.47 767.83)">SALON DE BELLEZA</text><g id="logo"><path d="M693.9 769.17c-254.1 0-460-162.41-460-362.65s206-362.64 460-362.64 460 162.4 460 362.64c5.3 185.69-204.8 359.51-460 362.65m-.9-735.7c-130.4 0-248.5 41.64-334 109S220.6 302.99 220.6 405.74s52.9 195.87 138.3 263.25 203.6 109 334 109 248.5-41.64 334-109 138.3-160.5 138.3-263.25c0-102.86-52.9-195.87-138.3-263.25s-203.5-109-333.9-109" class="cls-2"/><path d="M656.6 839.46c-254.1 0-460-162.41-460-362.65s206-362.64 460-362.64 460 162.41 460 362.64c5.3 185.69-204.8 359.52-460 362.65m-.9-735.7c-130.4 0-248.5 41.64-334 109S183.4 373.28 183.4 476.03s52.9 195.87 138.3 263.25 203.6 109.07 334 109.07 248.5-41.64 334-109S1128 578.85 1128 476.1c0-102.86-52.9-195.87-138.3-263.25s-203.6-109-334-109" class="cls-2"/><path id="V" d="M676.2 33.12C630.9 295 781.3 470.2 1057.1 570.15c-92-165.88-148.5-330.41 24-486.66l29.3 20.93c-5.1-20.93 12.5-52.61 42.6-90.22-43.7 26.53-80 39.07-109.2 37.72l24 16.79C953.1 155 893.5 267.94 900 412.78 807.5 358.49 694.3 240 676.2 33.12Z" class="cls-2" transform="translate(.3 .35)"/><path d="M258.3 308.25c132.7 181.21 92.9 404.28-95.9 576.88 119.9-62.91 282.4-252.78 253.1-419.51 111.9 50.37 199.8 169.91 229.1 373.39 42.5-98.61-8.2-436.52-386.3-530.76Z" class="cls-2"/><path d="M639.2 587.29c57.7 71.52 82.6 155.69 70.6 252.17q56.55-176.95-70.6-252.17ZM634.8 859.94h19.3V990h-19.3z" class="cls-2"/><path d="M607.2 916.58h74.6v16.79h-74.6zM213 312.5c-61.3-6.26-114.5 16.79-109.2 71.3 2.7 37.72 5 85-63.9 107 9.5 5.49 38.6 19.93 38.6 22.05 5.3 4.15-19.6 24.4-20 22l40 14.67-41.3 15.83c13 6.6 16 16.79 13.3 35.7-3.3 14.22 8 27.3 26.6 27.3h32c63.9 2.13 74.6 77.57 71.9 107-9.5-38.28-24.9-80.82-71.9-90.22h-40c-29.3 2.13-58.6-19.14-34.6-48.24v-10.54c.2-11-13.1-26.75-27-28.65 6.1-6.16 19.6-5.71 29.7-9.18l-33.5-8.06c16.5-9.4 21.1-11.86 28.2-23.39-1.4-5.45-22.6-13.62-51.9-36.67 79.9 2.12 85.2-69.18 82.6-92.34-13.5-90.22 114.8-98.71 130.4-75.56ZM1157.3 558.97c61.3 6.27 114.5-16.79 109.2-71.3-2.7-37.72-5-84.95 63.9-107-9.5-5.49-38.6-19.92-38.6-22.05-5.3-4.14 19.6-24.4 20-22l-40-14.66 41.3-15.79c-13-6.6-16-16.78-13.3-35.7 3.3-14.22-8-27.31-26.6-27.31h-32c-63.9-2.13-74.6-77.57-71.9-107 9.5 38.28 24.9 80.81 71.9 90.21h40c29.3-2.13 58.6 19.14 34.6 48.24v10.52c-.2 11 19.4 24.29 33.3 26.19-6.1 6.16-25.9 8.06-36 11.53l38.6 7.39c-16.5 9.4-26.2 12.65-33.3 24.18 1.4 5.48 22.6 13.65 51.9 36.71-79.9-2.13-85.2 69.17-82.6 92.34 13.4 90.16-114.9 98.67-130.4 75.5ZM676.5 297.84C591.6 224.08 562.4 119.54 633.9 0c-39.3 110.7-14.7 207.85 42.6 297.84Z" class="cls-2"/></g></g></svg>