<svg xmlns="http://www.w3.org/2000/svg" xml:space="preserve" id="Capa_1" x="0" y="0" style="enable-background:new 0 0 1080 1080" version="1.1" viewBox="0 0 1080 1080"><style>.st0{fill:#576581}</style><path d="M543.6 650.8c-104.6 0-189.3-65.6-189.3-146.5s84.8-146.5 189.3-146.5c104.6 0 189.3 65.6 189.3 146.5 2.2 75-84.3 145.2-189.3 146.5m-.4-297.3c-53.7 0-102.3 16.8-137.5 44.1-35.2 27.2-56.9 64.8-56.9 106.4 0 41.5 21.8 79.1 56.9 106.4 35.2 27.2 83.8 44.1 137.5 44.1s102.3-16.8 137.5-44.1c35.2-27.2 56.9-64.8 56.9-106.4h.4-.4c0-41.5-21.8-79.1-56.9-106.4-35.2-27.2-83.8-44.1-137.5-44.1" class="st0"/><path d="M528.3 679.2c-104.6 0-189.3-65.6-189.3-146.5s84.8-146.5 189.3-146.5c104.6 0 189.3 65.6 189.3 146.5 2.2 75-84.3 145.2-189.3 146.5m-.4-297.3c-53.7 0-102.3 16.8-137.5 44.1-35.2 27.2-56.9 64.8-56.9 106.4 0 41.5 21.8 79.1 56.9 106.4 35.2 27.2 83.8 44.1 137.5 44.1s102.3-16.8 137.5-44.1c35.2-27.2 56.9-64.8 56.9-106.4h.4-.4c0-41.5-21.8-79.1-56.9-106.4-35.2-27.2-83.8-44.1-137.5-44.1" class="st0"/><path id="V_1_" d="M536.4 353.6c-18.6 105.8 43.3 176.6 156.8 216.9-37.9-67-61.1-133.5 9.9-196.6l12.1 8.5c-2.1-8.5 5.1-21.2 17.5-36.4-18 10.7-32.9 15.8-45 15.3l9.9 6.8c-47.2 34.9-71.7 80.5-69.1 139-38-22.1-84.6-70-92.1-153.5z" class="st0"/><path d="M364.3 464.6c54.6 73.2 38.2 163.3-39.5 233.1C374.1 672.3 441 595.6 429 528.2c46 20.3 82.2 68.6 94.3 150.8 17.5-39.8-3.4-176.3-159-214.4zM521.1 577.3c23.7 28.9 34 62.9 29.1 101.9 15.5-47.7 5.8-81.6-29.1-101.9zM519.3 687.5h8V740h-8z" class="st0"/><path d="M507.9 710.3h30.7v6.8h-30.7zM345.7 466.3c-25.2-2.5-47.1 6.8-45 28.8 1.1 15.3 2.1 34.3-26.3 43.2 3.9 2.2 15.9 8.1 15.9 8.9 2.2 1.7-8.1 9.9-8.2 8.9l16.4 5.9-17 6.4c5.3 2.7 6.6 6.8 5.5 14.4-1.4 5.7 3.3 11 11 11h13.2c26.3.8 30.7 31.4 29.6 43.2-3.9-15.5-10.2-32.6-29.6-36.4h-16.4c-12.1.8-24.1-7.7-14.3-19.5v-4.2c.1-4.4-5.4-10.8-11.1-11.6 2.5-2.5 8.1-2.3 12.2-3.7l-13.8-3.3c6.8-3.8 8.7-4.8 11.6-9.4-.6-2.2-9.3-5.5-21.4-14.8 32.9.8 35.1-28 34-37.3-5.5-36.5 47.3-39.9 53.7-30.5zM734.3 565.8c25.2 2.5 47.1-6.8 45-28.8-1.1-15.3-2.1-34.3 26.3-43.2-3.9-2.2-15.9-8.1-15.9-8.9-2.2-1.7 8.1-9.9 8.2-8.9l-16.4-5.9 17-6.4c-5.3-2.7-6.6-6.8-5.5-14.4 1.4-5.7-3.3-11-11-11h-13.2c-26.3-.8-30.7-31.4-29.6-43.2 3.9 15.5 10.2 32.6 29.6 36.4h16.4c12.1-.8 24.1 7.7 14.3 19.5v4.2c-.1 4.4 8 9.8 13.7 10.6-2.5 2.5-10.6 3.3-14.8 4.7l15.9 3c-6.8 3.8-10.8 5.1-13.7 9.7.6 2.2 9.3 5.5 21.4 14.8-32.9-.8-35.1 28-34 37.3 5.5 36.5-47.3 39.9-53.7 30.5zM536.4 460.3c-34.9-29.8-47-72-17.5-120.3-16.2 44.8-6 84 17.5 120.3z" class="st0"/></svg>